<svg xmlns="http://www.w3.org/2000/svg" viewBox="0 0 600 400" width="600" height="400" role="img">
  <rect width="600" height="400" fill="#141310"/>
  <rect x="0" y="0" width="600" height="34" fill="rgba(237, 231, 220, 0.05)"/>
  <text x="26" y="22" font-family="Helvetica, Arial, sans-serif" font-size="11"
        font-weight="700" letter-spacing="1.6" fill="#EDE7DC">ARCA</text>
  <rect x="452" y="15" width="22" height="4" rx="2" fill="rgba(237, 231, 220, 0.3)"/><rect x="486" y="15" width="22" height="4" rx="2" fill="rgba(237, 231, 220, 0.3)"/><rect x="520" y="15" width="22" height="4" rx="2" fill="rgba(237, 231, 220, 0.3)"/>
  <rect x="552" y="11" width="30" height="13" rx="6.5" fill="#C9B08A"/>

  <defs>
    <linearGradient id="g-arca-residence-split" x1="0" y1="1" x2="1" y2="0">
      <stop offset="0%" stop-color="rgba(201, 176, 138, 0.6)"/>
      <stop offset="100%" stop-color="rgba(237, 231, 220, 0.07)"/>
    </linearGradient>
  </defs>
  <rect x="0" y="34" width="268" height="366" fill="url(#g-arca-residence-split)"/>
  <rect x="44" y="120" width="180" height="180" rx="90" fill="rgba(20, 19, 16, 0.45)"/>
  <rect x="300" y="76" width="232" height="20" rx="10" fill="#EDE7DC"/><rect x="300" y="108" width="190" height="20" rx="10" fill="#EDE7DC"/>
  <rect x="300" y="148" width="248" height="6" rx="3" fill="rgba(237, 231, 220, 0.34)"/><rect x="300" y="165" width="228" height="6" rx="3" fill="rgba(237, 231, 220, 0.34)"/><rect x="300" y="182" width="196" height="6" rx="3" fill="rgba(237, 231, 220, 0.34)"/>
  <rect x="300" y="216" width="124" height="32" rx="16" fill="#C9B08A"/>
  <rect x="300" y="276" width="274" height="1" fill="rgba(237, 231, 220, 0.14)"/>
  <g>
        <rect x="300" y="294" width="54" height="12" rx="6" fill="rgba(201, 176, 138, 0.75)"/>
        <rect x="366" y="298" width="150" height="5" rx="2.5" fill="rgba(237, 231, 220, 0.26)"/>
      </g><g>
        <rect x="300" y="326" width="40" height="12" rx="6" fill="rgba(201, 176, 138, 0.75)"/>
        <rect x="366" y="330" width="178" height="5" rx="2.5" fill="rgba(237, 231, 220, 0.26)"/>
      </g><g>
        <rect x="300" y="358" width="62" height="12" rx="6" fill="rgba(201, 176, 138, 0.75)"/>
        <rect x="366" y="362" width="132" height="5" rx="2.5" fill="rgba(237, 231, 220, 0.26)"/>
      </g>
</svg>
