<svg xmlns="http://www.w3.org/2000/svg" viewBox="0 0 600 400" width="600" height="400" role="img">
  <rect width="600" height="400" fill="#1B1F3B"/>
  <rect x="0" y="0" width="600" height="34" fill="rgba(238, 241, 255, 0.05)"/>
  <text x="26" y="22" font-family="Helvetica, Arial, sans-serif" font-size="11"
        font-weight="700" letter-spacing="1.6" fill="#EEF1FF">LUMEN</text>
  <rect x="452" y="15" width="22" height="4" rx="2" fill="rgba(238, 241, 255, 0.3)"/><rect x="486" y="15" width="22" height="4" rx="2" fill="rgba(238, 241, 255, 0.3)"/><rect x="520" y="15" width="22" height="4" rx="2" fill="rgba(238, 241, 255, 0.3)"/>
  <rect x="552" y="11" width="30" height="13" rx="6.5" fill="#F5C451"/>

  <defs>
    <linearGradient id="g-lumen-english-hero" x1="0" y1="0" x2="1" y2="1">
      <stop offset="0%" stop-color="rgba(245, 196, 81, 0.85)"/>
      <stop offset="55%" stop-color="rgba(245, 196, 81, 0.22)"/>
      <stop offset="100%" stop-color="rgba(238, 241, 255, 0.05)"/>
    </linearGradient>
  </defs>
  <rect x="330" y="66" width="244" height="292" rx="16" fill="url(#g-lumen-english-hero)"/>
  <circle cx="452" cy="196" r="62" fill="rgba(27, 31, 59, 0.55)"/>
  <rect x="26" y="84" width="252" height="22" rx="11" fill="#EEF1FF"/><rect x="26" y="120" width="210" height="22" rx="11" fill="#EEF1FF"/><rect x="26" y="156" width="168" height="22" rx="11" fill="#EEF1FF"/>
  <rect x="26" y="200" width="214" height="7" rx="3.5" fill="rgba(238, 241, 255, 0.38)"/><rect x="26" y="219" width="176" height="7" rx="3.5" fill="rgba(238, 241, 255, 0.38)"/>
  <rect x="26" y="244" width="116" height="34" rx="17" fill="#F5C451"/>
  <rect x="154" y="244" width="104" height="34" rx="17" fill="none" stroke="rgba(238, 241, 255, 0.3)" stroke-width="1.5"/>
  <g>
        <rect x="26" y="312" width="24" height="24" rx="6" fill="rgba(245, 196, 81, 0.3)"/>
        <rect x="26" y="346" width="66" height="5" rx="2.5" fill="rgba(238, 241, 255, 0.28)"/>
      </g><g>
        <rect x="126" y="312" width="24" height="24" rx="6" fill="rgba(245, 196, 81, 0.3)"/>
        <rect x="126" y="346" width="66" height="5" rx="2.5" fill="rgba(238, 241, 255, 0.28)"/>
      </g><g>
        <rect x="226" y="312" width="24" height="24" rx="6" fill="rgba(245, 196, 81, 0.3)"/>
        <rect x="226" y="346" width="66" height="5" rx="2.5" fill="rgba(238, 241, 255, 0.28)"/>
      </g>
</svg>
